<svg width="294" height="25" viewBox="0 0 294 25" fill="none" xmlns="http://www.w3.org/2000/svg">
<rect width="294" height="24" fill="white"/>
<path d="M227.909 11.0808L227.368 16H226.484L227.368 8.356L230.28 13.6288L233.192 8.356L234.076 16H233.192L232.651 11.0808L230.28 15.324L227.909 11.0808ZM238.72 16V15.168H242.391V16H238.72ZM238.72 9.552V8.72H242.391V9.552H238.72ZM238.72 12.464V11.632H242.183V12.464H238.72ZM238.231 8.72H239.115V16H238.231V8.72ZM252.373 8.72H253.257V16.364L247.745 10.5816V16H246.861V8.356L252.373 14.1384V8.72ZM257.785 8.72H258.669V13.608C258.669 14.1072 258.805 14.5093 259.075 14.8144C259.345 15.1195 259.741 15.272 260.261 15.272C260.781 15.272 261.176 15.1195 261.446 14.8144C261.717 14.5093 261.852 14.1072 261.852 13.608V8.72H262.736V13.608C262.736 13.9685 262.677 14.3013 262.559 14.6064C262.448 14.9115 262.282 15.1749 262.06 15.3968C261.845 15.6187 261.585 15.792 261.28 15.9168C260.975 16.0416 260.635 16.104 260.261 16.104C259.886 16.104 259.546 16.0416 259.241 15.9168C258.936 15.792 258.673 15.6187 258.451 15.3968C258.236 15.1749 258.07 14.9115 257.952 14.6064C257.841 14.3013 257.785 13.9685 257.785 13.608V8.72Z" fill="black"/>
<path d="M18.993 16.804L19.1882 14.7057H24.8326L25.0116 16.804H18.993ZM21.9698 11.794L20.3757 15.4702L20.5058 16.0721L19.0906 19H15.9837L21.9698 6.89783L27.972 19H24.8489L23.4825 16.1859L23.5801 15.4865L21.9698 11.794ZM29.1652 7.61355H31.9142V16.6414H36.4851V19H29.1652V7.61355ZM37.7591 7.61355H40.5081V16.6414H45.0789V19H37.7591V7.61355ZM48.2028 13.3068C48.2028 14.0008 48.3601 14.6027 48.6745 15.1123C48.989 15.6112 49.4011 15.9907 49.9108 16.251C50.4313 16.5112 51.0006 16.6414 51.6188 16.6414C52.161 16.6414 52.6381 16.5709 53.0502 16.4299C53.4623 16.2889 53.831 16.1046 54.1563 15.8769C54.4816 15.6491 54.769 15.4051 55.0184 15.1449V18.1054C54.563 18.4632 54.0641 18.7452 53.5219 18.9512C52.9797 19.1572 52.2911 19.2603 51.4561 19.2603C50.5452 19.2603 49.7047 19.1193 48.9348 18.8373C48.1649 18.5554 47.5034 18.1487 46.9503 17.6174C46.3973 17.086 45.9689 16.457 45.6653 15.7305C45.3616 15.0039 45.2098 14.196 45.2098 13.3068C45.2098 12.4175 45.3616 11.6096 45.6653 10.8831C45.9689 10.1565 46.3973 9.52756 46.9503 8.99619C47.5034 8.46482 48.1649 8.05816 48.9348 7.77621C49.7047 7.49426 50.5452 7.35329 51.4561 7.35329C52.2911 7.35329 52.9797 7.45631 53.5219 7.66235C54.0641 7.86839 54.563 8.15034 55.0184 8.5082V11.4687C54.769 11.2084 54.4816 10.9644 54.1563 10.7367C53.831 10.4981 53.4623 10.3138 53.0502 10.1836C52.6381 10.0427 52.161 9.97217 51.6188 9.97217C51.0006 9.97217 50.4313 10.1023 49.9108 10.3626C49.4011 10.6228 48.989 11.0024 48.6745 11.5012C48.3601 12 48.2028 12.6019 48.2028 13.3068ZM59.527 13.3068C59.527 13.9791 59.6571 14.5755 59.9174 15.0961C60.1885 15.6058 60.5626 16.007 61.0398 16.2998C61.5278 16.5926 62.0971 16.739 62.7477 16.739C63.3876 16.739 63.946 16.5926 64.4232 16.2998C64.9112 16.007 65.2853 15.6058 65.5456 15.0961C65.8167 14.5755 65.9522 13.9791 65.9522 13.3068C65.9522 12.6344 65.8221 12.0434 65.5618 11.5337C65.3016 11.0132 64.9329 10.6066 64.4557 10.3138C63.9786 10.021 63.4092 9.87457 62.7477 9.87457C62.0971 9.87457 61.5278 10.021 61.0398 10.3138C60.5626 10.6066 60.1885 11.0132 59.9174 11.5337C59.6571 12.0434 59.527 12.6344 59.527 13.3068ZM56.6153 13.3068C56.6153 12.4284 56.7671 11.6259 57.0708 10.8994C57.3853 10.1728 57.819 9.54382 58.3721 9.01245C58.9251 8.48109 59.5758 8.07443 60.3241 7.79248C61.0723 7.49968 61.8802 7.35329 62.7477 7.35329C63.6261 7.35329 64.434 7.49968 65.1714 7.79248C65.9197 8.07443 66.5703 8.48109 67.1234 9.01245C67.6764 9.54382 68.1048 10.1728 68.4084 10.8994C68.7121 11.6259 68.8639 12.4284 68.8639 13.3068C68.8639 14.1852 68.7121 14.9931 68.4084 15.7305C68.1156 16.4679 67.6927 17.1077 67.1397 17.6499C66.5974 18.1921 65.9522 18.615 65.204 18.9187C64.4557 19.2115 63.637 19.3579 62.7477 19.3579C61.8477 19.3579 61.0235 19.2115 60.2753 18.9187C59.527 18.615 58.8763 18.1921 58.3233 17.6499C57.7811 17.1077 57.3582 16.4679 57.0545 15.7305C56.7617 14.9931 56.6153 14.1852 56.6153 13.3068ZM70.0191 17.8939C70.0191 17.4818 70.1655 17.1294 70.4583 16.8366C70.751 16.5438 71.1143 16.3974 71.5481 16.3974C72.0036 16.3974 72.3723 16.5438 72.6542 16.8366C72.9362 17.1294 73.0771 17.4818 73.0771 17.8939C73.0771 18.306 72.9362 18.6584 72.6542 18.9512C72.3723 19.244 72.0036 19.3904 71.5481 19.3904C71.1143 19.3904 70.751 19.244 70.4583 18.9512C70.1655 18.6584 70.0191 18.306 70.0191 17.8939Z" fill="black"/>
<rect x="208.4" y="10" width="10.2284" height="1" rx="0.5" fill="black"/>
<rect x="208.4" y="15" width="10.2284" height="1" rx="0.5" fill="black"/>
</svg>
